<svg width="1000" height="1000" viewBox="0 0 1000 1000" fill="none" xmlns="http://www.w3.org/2000/svg">
<rect x="53" y="168" width="800" height="800" fill="#414141"/>
<path d="M166.71 346.818L223.493 518.551H225.73L282.406 346.818H325.872L248.955 565H200.162L123.351 346.818H166.71ZM533.907 346.818V565H498.75L395.945 416.385H394.134V565H354.61V346.818H389.979L492.678 495.54H494.596V346.818H533.907ZM650.908 565H576.973V346.818H652.399C674.061 346.818 692.669 351.186 708.223 359.922C723.848 368.587 735.851 381.051 744.232 397.315C752.612 413.58 756.803 433.04 756.803 455.696C756.803 478.423 752.577 497.955 744.125 514.29C735.744 530.625 723.635 543.161 707.797 551.896C692.03 560.632 673.067 565 650.908 565ZM616.497 530.803H648.99C664.189 530.803 676.866 528.033 687.023 522.493C697.179 516.882 704.814 508.537 709.928 497.457C715.041 486.307 717.598 472.386 717.598 455.696C717.598 439.006 715.041 425.156 709.928 414.148C704.814 403.068 697.25 394.794 687.236 389.325C677.293 383.786 664.935 381.016 650.162 381.016H616.497V530.803Z" fill="white"/>
<path d="M188.527 625.364V655.193H94.4574V625.364H188.527ZM117.682 586.159H156.247V739.781C156.247 744.966 157.028 748.943 158.591 751.713C160.224 754.412 162.355 756.259 164.983 757.253C167.611 758.247 170.523 758.744 173.719 758.744C176.134 758.744 178.335 758.567 180.324 758.212C182.384 757.857 183.946 757.537 185.011 757.253L191.51 787.402C189.45 788.112 186.503 788.893 182.668 789.746C178.903 790.598 174.287 791.095 168.818 791.237C159.159 791.521 150.459 790.065 142.717 786.869C134.976 783.602 128.832 778.56 124.287 771.741C119.813 764.923 117.611 756.401 117.682 746.173V586.159ZM291.466 792.196C275.059 792.196 260.89 788.787 248.958 781.969C237.098 775.08 227.971 765.349 221.579 752.778C215.187 740.136 211.991 725.257 211.991 708.141C211.991 691.308 215.187 676.536 221.579 663.822C228.042 651.038 237.062 641.095 248.639 633.993C260.216 626.82 273.816 623.233 289.441 623.233C299.527 623.233 309.044 624.866 317.993 628.134C327.012 631.33 334.967 636.301 341.856 643.048C348.816 649.795 354.285 658.389 358.262 668.83C362.24 679.199 364.228 691.557 364.228 705.903V717.729H230.102V691.734H327.261C327.19 684.348 325.592 677.778 322.467 672.026C319.342 666.202 314.974 661.621 309.363 658.283C303.824 654.945 297.36 653.276 289.974 653.276C282.091 653.276 275.166 655.193 269.2 659.028C263.234 662.793 258.582 667.764 255.244 673.943C251.977 680.051 250.308 686.763 250.237 694.078V716.77C250.237 726.287 251.977 734.455 255.457 741.273C258.937 748.02 263.802 753.205 270.052 756.827C276.302 760.378 283.618 762.153 291.998 762.153C297.609 762.153 302.687 761.372 307.233 759.81C311.778 758.176 315.72 755.797 319.058 752.672C322.396 749.547 324.917 745.676 326.622 741.06L362.63 745.108C360.358 754.625 356.025 762.935 349.633 770.037C343.312 777.068 335.216 782.537 325.343 786.443C315.471 790.278 304.179 792.196 291.466 792.196ZM443.942 792.303C433.573 792.303 424.234 790.456 415.924 786.763C407.685 782.999 401.151 777.459 396.322 770.143C391.563 762.828 389.184 753.808 389.184 743.084C389.184 733.851 390.888 726.216 394.298 720.179C397.707 714.142 402.359 709.312 408.254 705.69C414.148 702.068 420.789 699.334 428.175 697.487C435.633 695.57 443.339 694.185 451.293 693.332C460.881 692.338 468.658 691.45 474.624 690.669C480.59 689.817 484.923 688.538 487.621 686.834C490.391 685.058 491.776 682.324 491.776 678.631V677.991C491.776 669.966 489.397 663.751 484.638 659.348C479.88 654.945 473.026 652.743 464.077 652.743C454.631 652.743 447.138 654.803 441.599 658.922C436.13 663.041 432.437 667.906 430.519 673.517L394.511 668.403C397.352 658.46 402.039 650.151 408.573 643.474C415.107 636.727 423.097 631.685 432.543 628.347C441.989 624.938 452.43 623.233 463.864 623.233C471.748 623.233 479.596 624.156 487.408 626.003C495.221 627.849 502.359 630.903 508.822 635.165C515.285 639.355 520.469 645.072 524.376 652.317C528.353 659.561 530.342 668.616 530.342 679.483V789H493.268V766.521H491.989C489.646 771.067 486.343 775.328 482.082 779.305C477.891 783.212 472.6 786.372 466.208 788.787C459.887 791.131 452.465 792.303 443.942 792.303ZM453.957 763.964C461.698 763.964 468.41 762.437 474.092 759.384C479.773 756.259 484.141 752.139 487.195 747.026C490.32 741.912 491.883 736.337 491.883 730.3V711.017C490.675 712.011 488.616 712.935 485.704 713.787C482.863 714.639 479.667 715.385 476.116 716.024C472.565 716.663 469.049 717.232 465.569 717.729C462.089 718.226 459.07 718.652 456.513 719.007C450.761 719.788 445.612 721.067 441.066 722.842C436.521 724.618 432.934 727.104 430.306 730.3C427.678 733.425 426.364 737.473 426.364 742.445C426.364 749.547 428.957 754.909 434.141 758.531C439.326 762.153 445.931 763.964 453.957 763.964ZM569.12 789V625.364H605.981V653.169H607.898C611.308 643.794 616.954 636.479 624.837 631.223C632.721 625.896 642.131 623.233 653.069 623.233C664.148 623.233 673.488 625.932 681.087 631.33C688.758 636.656 694.156 643.936 697.281 653.169H698.985C702.607 644.078 708.715 636.834 717.309 631.436C725.974 625.967 736.237 623.233 748.097 623.233C763.154 623.233 775.441 627.991 784.958 637.509C794.475 647.026 799.234 660.911 799.234 679.163V789H760.562V685.129C760.562 674.973 757.863 667.551 752.465 662.864C747.067 658.105 740.462 655.726 732.65 655.726C723.346 655.726 716.066 658.638 710.81 664.462C705.626 670.214 703.033 677.707 703.033 686.94V789H665.214V683.531C665.214 675.08 662.657 668.332 657.543 663.29C652.501 658.247 645.896 655.726 637.728 655.726C632.188 655.726 627.146 657.146 622.6 659.987C618.055 662.757 614.433 666.699 611.734 671.812C609.035 676.855 607.685 682.75 607.685 689.497V789H569.12Z" fill="#A97CC6"/>
<path d="M853 165.5L948 31V803.5L853 968V165.5Z" fill="#393939"/>
<path d="M191 31H948L852 168H53L191 31Z" fill="#494752"/>
</svg>
